<?xml version="1.0" standalone="no"?>
<!DOCTYPE svg PUBLIC "-//W3C//DTD SVG 20010904//EN"
 "http://www.w3.org/TR/2001/REC-SVG-20010904/DTD/svg10.dtd">
<svg version="1.0" xmlns="http://www.w3.org/2000/svg"
 width="522.000000pt" height="522.000000pt" viewBox="0 0 522.000000 522.000000"
 preserveAspectRatio="xMidYMid meet">
<metadata>
Created by potrace 1.11, written by Peter Selinger 2001-2013
</metadata>
<g transform="translate(0.000000,522.000000) scale(0.100000,-0.100000)"
fill="#000000" stroke="none">
<path d="M2380 5213 c-624 -61 -1186 -325 -1620 -762 -63 -64 -131 -136 -150
-161 -19 -25 -37 -47 -41 -50 -3 -3 -39 -50 -79 -105 -199 -276 -340 -585
-420 -920 -33 -137 -38 -169 -59 -340 -9 -73 -7 -504 3 -565 3 -19 11 -69 17
-110 61 -423 263 -879 546 -1230 69 -86 237 -261 328 -340 339 -296 805 -516
1262 -595 141 -24 230 -30 443 -30 210 0 308 7 438 30 960 169 1733 833 2040
1753 38 111 84 295 97 387 4 22 8 47 10 55 26 99 26 666 0 760 -2 8 -7 35 -10
60 -18 133 -93 392 -162 560 -94 229 -267 514 -413 680 -107 123 -149 166
-240 248 -339 307 -746 521 -1170 616 -135 30 -157 34 -230 42 -30 3 -73 9
-95 13 -40 7 -429 10 -495 4z m-748 -1055 c2 -7 4 -699 4 -1538 l-1 -1525
-133 -3 -132 -3 0 1541 0 1540 129 0 c94 0 130 -3 133 -12z m1686 -1122 c346
-26 660 -245 803 -561 46 -101 79 -246 86 -372 25 -478 -244 -878 -681 -1012
-120 -37 -188 -46 -336 -46 -185 1 -312 30 -469 107 -330 162 -524 481 -530
870 -9 552 359 966 904 1017 44 4 96 6 115 5 19 -2 68 -5 108 -8z"/>
<path d="M3150 2802 c-134 -10 -295 -66 -383 -133 -140 -106 -236 -268 -273
-457 -14 -73 -14 -283 0 -347 34 -157 98 -277 201 -380 133 -134 285 -196 480
-199 149 -1 229 13 334 61 172 79 308 232 365 413 121 380 -9 778 -310 951
-107 62 -286 101 -414 91z"/>
</g>
</svg>
